<svg xmlns="http://www.w3.org/2000/svg" width="940" height="512" viewBox="0 0 940 512" role="img" aria-label="Per-call latency distributions for torch.compile called directly and for the same model through lm7.compile, overlapping almost entirely">
<rect width="940" height="512" fill="#f7f9fc"/>
<rect x="16" y="16" width="908" height="480" rx="10" fill="#ffffff" stroke="#dde4ec"/>
<text x="44.0" y="54.0" font-family="ui-sans-serif, -apple-system, BlinkMacSystemFont, 'Segoe UI', Roboto, Helvetica, Arial, sans-serif" font-size="19" font-weight="600" fill="#1a2532" text-anchor="start">The same compiler, with and without LM7 in the call path</text>
<text x="44.0" y="80.0" font-family="ui-sans-serif, -apple-system, BlinkMacSystemFont, 'Segoe UI', Roboto, Helvetica, Arial, sans-serif" font-size="13" font-weight="400" fill="#68788a" text-anchor="start">300 consecutive forward passes each · SmolLM2-135M-Instruct · batch 1 · float16 · Apple Metal GPU · torch 2.13.0</text>
<text x="44.0" y="100.0" font-family="ui-sans-serif, -apple-system, BlinkMacSystemFont, 'Segoe UI', Roboto, Helvetica, Arial, sans-serif" font-size="13" font-weight="400" fill="#68788a" text-anchor="start">Both arms compile through TorchInductor with mode=None, so the generated code is the same and what differs is dispatch.</text>
<text x="44.0" y="126.0" font-family="ui-sans-serif, -apple-system, BlinkMacSystemFont, 'Segoe UI', Roboto, Helvetica, Arial, sans-serif" font-size="13" font-weight="500" fill="#1a2532" text-anchor="start">The medians are 0.21 ms apart — 2.6% of the call, and smaller than what this machine varies by between runs.</text>
<line x1="78" y1="405.0" x2="900" y2="405.0" stroke="#e6ecf3" stroke-width="1"/>
<text x="68.0" y="409.0" font-family="ui-monospace, SFMono-Regular, Menlo, Consolas, monospace" font-size="11" font-weight="400" fill="#68788a" text-anchor="end">0</text>
<line x1="78" y1="344.2" x2="900" y2="344.2" stroke="#e6ecf3" stroke-width="1"/>
<text x="68.0" y="348.2" font-family="ui-monospace, SFMono-Regular, Menlo, Consolas, monospace" font-size="11" font-weight="400" fill="#68788a" text-anchor="end">15</text>
<line x1="78" y1="283.5" x2="900" y2="283.5" stroke="#e6ecf3" stroke-width="1"/>
<text x="68.0" y="287.5" font-family="ui-monospace, SFMono-Regular, Menlo, Consolas, monospace" font-size="11" font-weight="400" fill="#68788a" text-anchor="end">30</text>
<line x1="78" y1="222.8" x2="900" y2="222.8" stroke="#e6ecf3" stroke-width="1"/>
<text x="68.0" y="226.8" font-family="ui-monospace, SFMono-Regular, Menlo, Consolas, monospace" font-size="11" font-weight="400" fill="#68788a" text-anchor="end">45</text>
<line x1="78" y1="162.0" x2="900" y2="162.0" stroke="#e6ecf3" stroke-width="1"/>
<text x="68.0" y="166.0" font-family="ui-monospace, SFMono-Regular, Menlo, Consolas, monospace" font-size="11" font-weight="400" fill="#68788a" text-anchor="end">60</text>
<text x="32" y="283.5" font-family="ui-sans-serif, -apple-system, BlinkMacSystemFont, 'Segoe UI', Roboto, Helvetica, Arial, sans-serif" font-size="11" fill="#68788a" text-anchor="middle" transform="rotate(-90 32 283.5)">calls</text>
<path d="M 78.00 405.00 L 78.00 405.00 L 107.36 405.00 L 107.36 356.40 L 136.71 356.40 L 136.71 238.95 L 166.07 238.95 L 166.07 247.05 L 195.43 247.05 L 195.43 311.85 L 224.79 311.85 L 224.79 356.40 L 254.14 356.40 L 254.14 340.20 L 283.50 340.20 L 283.50 319.95 L 312.86 319.95 L 312.86 315.90 L 342.21 315.90 L 342.21 360.45 L 371.57 360.45 L 371.57 380.70 L 400.93 380.70 L 400.93 348.30 L 430.29 348.30 L 430.29 380.70 L 459.64 380.70 L 459.64 376.65 L 489.00 376.65 L 489.00 352.35 L 518.36 352.35 L 518.36 328.05 L 547.71 328.05 L 547.71 368.55 L 577.07 368.55 L 577.07 384.75 L 606.43 384.75 L 606.43 376.65 L 635.79 376.65 L 635.79 388.80 L 665.14 388.80 L 665.14 380.70 L 694.50 380.70 L 694.50 396.90 L 723.86 396.90 L 723.86 396.90 L 753.21 396.90 L 753.21 405.00 L 782.57 405.00 L 782.57 405.00 L 811.93 405.00 L 811.93 400.95 L 841.29 400.95 L 841.29 400.95 L 870.64 400.95 L 870.64 405.00 L 900.00 405.00 L 900.00 405.00 Z" fill="#2a78d6" fill-opacity="0.30" stroke="#2a78d6" stroke-width="2" stroke-linejoin="round"/>
<path d="M 78.00 405.00 L 78.00 405.00 L 107.36 405.00 L 107.36 405.00 L 136.71 405.00 L 136.71 396.90 L 166.07 396.90 L 166.07 348.30 L 195.43 348.30 L 195.43 190.35 L 224.79 190.35 L 224.79 238.95 L 254.14 238.95 L 254.14 307.80 L 283.50 307.80 L 283.50 356.40 L 312.86 356.40 L 312.86 328.05 L 342.21 328.05 L 342.21 344.25 L 371.57 344.25 L 371.57 328.05 L 400.93 328.05 L 400.93 380.70 L 430.29 380.70 L 430.29 384.75 L 459.64 384.75 L 459.64 388.80 L 489.00 388.80 L 489.00 372.60 L 518.36 372.60 L 518.36 376.65 L 547.71 376.65 L 547.71 392.85 L 577.07 392.85 L 577.07 356.40 L 606.43 356.40 L 606.43 352.35 L 635.79 352.35 L 635.79 368.55 L 665.14 368.55 L 665.14 376.65 L 694.50 376.65 L 694.50 376.65 L 723.86 376.65 L 723.86 396.90 L 753.21 396.90 L 753.21 396.90 L 782.57 396.90 L 782.57 396.90 L 811.93 396.90 L 811.93 405.00 L 841.29 405.00 L 841.29 384.75 L 870.64 384.75 L 870.64 400.95 L 900.00 400.95 L 900.00 405.00 Z" fill="#eb6834" fill-opacity="0.30" stroke="#eb6834" stroke-width="2" stroke-linejoin="round"/>
<line x1="292.8" y1="154" x2="292.8" y2="405" stroke="#2a78d6" stroke-width="2"/>
<text x="285.8" y="148.0" font-family="ui-sans-serif, -apple-system, BlinkMacSystemFont, 'Segoe UI', Roboto, Helvetica, Arial, sans-serif" font-size="12" font-weight="600" fill="#2a78d6" text-anchor="end">torch.compile 7.86 ms</text>
<line x1="323.1" y1="154" x2="323.1" y2="405" stroke="#eb6834" stroke-width="2"/>
<text x="330.1" y="148.0" font-family="ui-sans-serif, -apple-system, BlinkMacSystemFont, 'Segoe UI', Roboto, Helvetica, Arial, sans-serif" font-size="12" font-weight="600" fill="#eb6834" text-anchor="start">lm7.compile 8.07 ms</text>
<line x1="78" y1="405" x2="900" y2="405" stroke="#dde4ec" stroke-width="1"/>
<line x1="166.1" y1="405" x2="166.1" y2="410" stroke="#dde4ec" stroke-width="1"/>
<text x="166.1" y="425.0" font-family="ui-monospace, SFMono-Regular, Menlo, Consolas, monospace" font-size="11" font-weight="400" fill="#68788a" text-anchor="middle">7</text>
<line x1="312.9" y1="405" x2="312.9" y2="410" stroke="#dde4ec" stroke-width="1"/>
<text x="312.9" y="425.0" font-family="ui-monospace, SFMono-Regular, Menlo, Consolas, monospace" font-size="11" font-weight="400" fill="#68788a" text-anchor="middle">8</text>
<line x1="459.6" y1="405" x2="459.6" y2="410" stroke="#dde4ec" stroke-width="1"/>
<text x="459.6" y="425.0" font-family="ui-monospace, SFMono-Regular, Menlo, Consolas, monospace" font-size="11" font-weight="400" fill="#68788a" text-anchor="middle">9</text>
<line x1="606.4" y1="405" x2="606.4" y2="410" stroke="#dde4ec" stroke-width="1"/>
<text x="606.4" y="425.0" font-family="ui-monospace, SFMono-Regular, Menlo, Consolas, monospace" font-size="11" font-weight="400" fill="#68788a" text-anchor="middle">10</text>
<line x1="753.2" y1="405" x2="753.2" y2="410" stroke="#dde4ec" stroke-width="1"/>
<text x="753.2" y="425.0" font-family="ui-monospace, SFMono-Regular, Menlo, Consolas, monospace" font-size="11" font-weight="400" fill="#68788a" text-anchor="middle">11</text>
<line x1="900.0" y1="405" x2="900.0" y2="410" stroke="#dde4ec" stroke-width="1"/>
<text x="900.0" y="425.0" font-family="ui-monospace, SFMono-Regular, Menlo, Consolas, monospace" font-size="11" font-weight="400" fill="#68788a" text-anchor="middle">12</text>
<text x="489.0" y="447.0" font-family="ui-sans-serif, -apple-system, BlinkMacSystemFont, 'Segoe UI', Roboto, Helvetica, Arial, sans-serif" font-size="12" font-weight="400" fill="#68788a" text-anchor="middle">milliseconds per forward pass</text>
<rect x="44.0" y="471" width="12" height="12" rx="2" fill="#2a78d6" fill-opacity="0.30" stroke="#2a78d6" stroke-width="2"/>
<text x="64.0" y="481.0" font-family="ui-monospace, SFMono-Regular, Menlo, Consolas, monospace" font-size="13" font-weight="500" fill="#1a2532" text-anchor="start">torch.compile</text>
<rect x="200.1" y="471" width="12" height="12" rx="2" fill="#eb6834" fill-opacity="0.30" stroke="#eb6834" stroke-width="2"/>
<text x="220.1" y="481.0" font-family="ui-monospace, SFMono-Regular, Menlo, Consolas, monospace" font-size="13" font-weight="500" fill="#1a2532" text-anchor="start">lm7.compile</text>
<text x="896.0" y="481.0" font-family="ui-sans-serif, -apple-system, BlinkMacSystemFont, 'Segoe UI', Roboto, Helvetica, Arial, sans-serif" font-size="11" font-weight="400" fill="#68788a" text-anchor="end">9 of 600 calls past 12 ms, not drawn</text>
</svg>