<svg xmlns="http://www.w3.org/2000/svg" width="1096" height="994" viewBox="0 0 1096 994" role="img" aria-label="LM7 architecture: model, orchestrator, backends, lowering and runtime, hardware">
<defs><marker id="arrow" viewBox="0 0 8 8" refX="6" refY="4" markerWidth="5" markerHeight="5" orient="auto"><path d="M 0 1 L 6 4 L 0 7 z" fill="#8896a4"/></marker></defs>
<rect x="0" y="0" width="1096" height="994" rx="0" fill="#ffffff"/>
<text x="24" y="44" font-family="ui-monospace, SFMono-Regular, Menlo, Consolas, monospace" font-size="23" font-weight="800" fill="#c3ccd6" text-anchor="start">01</text>
<text x="24" y="60" font-family="ui-sans-serif, -apple-system, BlinkMacSystemFont, 'Segoe UI', Roboto, Helvetica, Arial, sans-serif" font-size="7.5" font-weight="700" fill="#63737f" text-anchor="start" letter-spacing="0.06em">MODEL</text>
<rect x="102" y="26" width="970" height="68" rx="7" fill="#ffffff" stroke="#d5dde5" stroke-width="1"/>
<g transform="translate(122 44) scale(1.3333)"><path d="M12.005 0L4.952 7.053a9.865 9.865 0 000 14.022 9.866 9.866 0 0014.022 0c3.984-3.9 3.986-10.205.085-14.023l-1.744 1.743c2.904 2.905 2.904 7.634 0 10.538s-7.634 2.904-10.538 0-2.904-7.634 0-10.538l4.647-4.646.582-.665zm3.568 3.899a1.327 1.327 0 00-1.327 1.327 1.327 1.327 0 001.327 1.328A1.327 1.327 0 0016.9 5.226 1.327 1.327 0 0015.573 3.9z" fill="#EE4C2C"/></g>
<text x="156" y="52" font-family="ui-sans-serif, -apple-system, BlinkMacSystemFont, 'Segoe UI', Roboto, Helvetica, Arial, sans-serif" font-size="18" font-weight="700" fill="#16202b" text-anchor="start">PyTorch / Hugging Face model</text>
<text x="156" y="70" font-family="ui-sans-serif, -apple-system, BlinkMacSystemFont, 'Segoe UI', Roboto, Helvetica, Arial, sans-serif" font-size="10" font-weight="400" fill="#63737f" text-anchor="start">nn.Module, or an lm7 hf:// model id, with representative inputs</text>
<text x="1052" y="52" font-family="ui-sans-serif, -apple-system, BlinkMacSystemFont, 'Segoe UI', Roboto, Helvetica, Arial, sans-serif" font-size="15" font-weight="800" fill="#2563eb" text-anchor="end">LM7</text>
<text x="1052" y="70" font-family="ui-sans-serif, -apple-system, BlinkMacSystemFont, 'Segoe UI', Roboto, Helvetica, Arial, sans-serif" font-size="9.5" font-weight="400" fill="#63737f" text-anchor="end">PyTorch-first compiler orchestrator</text>
<path d="M 587.0 94 L 587.0 120" stroke="#8896a4" stroke-width="1.4" fill="none" marker-end="url(#arrow)"/>
<text x="24" y="142" font-family="ui-monospace, SFMono-Regular, Menlo, Consolas, monospace" font-size="23" font-weight="800" fill="#c3ccd6" text-anchor="start">02</text>
<text x="24" y="158" font-family="ui-sans-serif, -apple-system, BlinkMacSystemFont, 'Segoe UI', Roboto, Helvetica, Arial, sans-serif" font-size="7.5" font-weight="700" fill="#63737f" text-anchor="start" letter-spacing="0.06em">ORCHESTRATOR</text>
<rect x="102" y="124" width="970" height="94" rx="8" fill="#1c2b45"/>
<text x="122" y="154" font-family="ui-sans-serif, -apple-system, BlinkMacSystemFont, 'Segoe UI', Roboto, Helvetica, Arial, sans-serif" font-size="20" font-weight="800" fill="#ffffff" text-anchor="start">lm7</text>
<text x="176" y="154" font-family="ui-sans-serif, -apple-system, BlinkMacSystemFont, 'Segoe UI', Roboto, Helvetica, Arial, sans-serif" font-size="10" font-weight="500" fill="#ffffff" text-anchor="start">one model, one target string</text>
<text x="122" y="196" font-family="ui-sans-serif, -apple-system, BlinkMacSystemFont, 'Segoe UI', Roboto, Helvetica, Arial, sans-serif" font-size="8.5" font-weight="500" fill="#ffffff" text-anchor="start">target detection  ·  backend selection  ·  shape and compile cache  ·  safe eager fallback  ·  artifact manifest</text>
<rect x="786" y="134" width="134" height="40" rx="6" fill="#ffffff" stroke="#d5dde5" stroke-width="1"/>
<text x="853" y="151" font-family="ui-monospace, SFMono-Regular, Menlo, Consolas, monospace" font-size="11" font-weight="700" fill="#16202b" text-anchor="middle">lm7.compile()</text>
<text x="853" y="165" font-family="ui-sans-serif, -apple-system, BlinkMacSystemFont, 'Segoe UI', Roboto, Helvetica, Arial, sans-serif" font-size="8.5" font-weight="400" fill="#63737f" text-anchor="middle">run it here</text>
<rect x="931" y="134" width="134" height="40" rx="6" fill="#ffffff" stroke="#d5dde5" stroke-width="1"/>
<text x="998" y="151" font-family="ui-monospace, SFMono-Regular, Menlo, Consolas, monospace" font-size="11" font-weight="700" fill="#16202b" text-anchor="middle">lm7.export()</text>
<text x="998" y="165" font-family="ui-sans-serif, -apple-system, BlinkMacSystemFont, 'Segoe UI', Roboto, Helvetica, Arial, sans-serif" font-size="8.5" font-weight="400" fill="#63737f" text-anchor="middle">ship an artifact</text>
<rect x="92" y="242" width="990" height="440" rx="10" fill="#eef4fb" stroke="#cddef2" stroke-width="1"/>
<rect x="92" y="692" width="990" height="138" rx="10" fill="#f3f0fb" stroke="#ddd5f3" stroke-width="1"/>
<rect x="92" y="840" width="990" height="102" rx="10" fill="#eef8f1" stroke="#cfe8d8" stroke-width="1"/>
<text x="24" y="268" font-family="ui-monospace, SFMono-Regular, Menlo, Consolas, monospace" font-size="23" font-weight="800" fill="#c3ccd6" text-anchor="start">03</text>
<text x="24" y="284" font-family="ui-sans-serif, -apple-system, BlinkMacSystemFont, 'Segoe UI', Roboto, Helvetica, Arial, sans-serif" font-size="7.5" font-weight="700" fill="#63737f" text-anchor="start" letter-spacing="0.06em">BACKENDS</text>
<text x="24" y="718" font-family="ui-monospace, SFMono-Regular, Menlo, Consolas, monospace" font-size="23" font-weight="800" fill="#c3ccd6" text-anchor="start">04</text>
<text x="24" y="734" font-family="ui-sans-serif, -apple-system, BlinkMacSystemFont, 'Segoe UI', Roboto, Helvetica, Arial, sans-serif" font-size="7.5" font-weight="700" fill="#63737f" text-anchor="start" letter-spacing="0.06em">LOWERING</text>
<text x="24" y="866" font-family="ui-monospace, SFMono-Regular, Menlo, Consolas, monospace" font-size="23" font-weight="800" fill="#c3ccd6" text-anchor="start">05</text>
<text x="24" y="882" font-family="ui-sans-serif, -apple-system, BlinkMacSystemFont, 'Segoe UI', Roboto, Helvetica, Arial, sans-serif" font-size="7.5" font-weight="700" fill="#63737f" text-anchor="start" letter-spacing="0.06em">HARDWARE</text>
<path d="M 218.0 218 L 218.0 240" stroke="#8896a4" stroke-width="1.4" fill="none" marker-end="url(#arrow)"/>
<g transform="translate(104 257) scale(0.7500)"><path d="M20.42 7.345v9.18h1.651v-9.18zM0 7.475v1.737h1.737V7.474zm9.78.352v6.053c0 .513.044.945.13 1.292.087.34.235.618.44.828.203.21.475.359.803.451.334.093.754.136 1.255.136h.216v-1.533c-.24 0-.445-.012-.593-.037a.672.672 0 0 1-.39-.173.693.693 0 0 1-.173-.377 4.002 4.002 0 0 1-.037-.606v-2.182h1.193v-1.416h-1.193V7.827zm-3.505 2.312c-.396 0-.76.08-1.082.241-.327.161-.6.384-.822.668l-.087.117v-.902H2.658v6.256h1.639v-3.214c.018-.588.16-1.02.433-1.299.29-.297.642-.445 1.044-.445.476 0 .841.149 1.082.433.235.284.359.686.359 1.2v3.324h1.663V12.97c.006-.89-.229-1.595-.686-2.09-.458-.495-1.1-.742-1.917-.742zm10.065.006a3.252 3.252 0 0 0-2.306.946c-.29.29-.525.637-.692 1.033a3.145 3.145 0 0 0-.254 1.273c0 .452.08.878.241 1.274.161.395.39.742.674 1.032.284.29.637.526 1.045.693.408.173.86.26 1.342.26 1.397 0 2.262-.637 2.782-1.23l-1.187-.904c-.248.297-.841.699-1.583.699-.464 0-.847-.105-1.138-.321a1.588 1.588 0 0 1-.593-.872l-.019-.056h4.915v-.587c0-.451-.08-.872-.235-1.267a3.393 3.393 0 0 0-.661-1.033 3.013 3.013 0 0 0-1.02-.692 3.345 3.345 0 0 0-1.311-.248zm-16.297.118v6.256h1.651v-6.256zm16.278 1.286c1.132 0 1.664.797 1.664 1.255l-3.32.006c0-.458.525-1.255 1.656-1.261zm7.073 3.814a.606.606 0 0 0-.606.606.606.606 0 0 0 .606.606.606.606 0 0 0 .606-.606.606.606 0 0 0-.606-.606zm-.008.105a.5.5 0 0 1 .002 0 .5.5 0 0 1 .5.501.5.5 0 0 1-.5.5.5.5 0 0 1-.5-.5.5.5 0 0 1 .498-.5zm-.233.155v.699h.13v-.285h.093l.173.285h.136l-.18-.297a.191.191 0 0 0 .118-.056c.03-.03.05-.074.05-.136 0-.068-.02-.117-.063-.154-.037-.038-.105-.056-.185-.056zm.13.099h.154c.019 0 .037.006.056.012a.064.064 0 0 1 .037.031c.013.013.012.031.012.056a.124.124 0 0 1-.012.055.164.164 0 0 1-.037.031c-.019.006-.037.013-.056.013h-.154Z" fill="#0071C5"/></g>
<text x="128" y="271" font-family="ui-sans-serif, -apple-system, BlinkMacSystemFont, 'Segoe UI', Roboto, Helvetica, Arial, sans-serif" font-size="14" font-weight="800" fill="#0068b5" text-anchor="start">Intel</text>
<rect x="102" y="278" width="232" height="2" rx="0" fill="#0068b5"/>
<rect x="102" y="288" width="232" height="161" rx="7" fill="#ffffff" stroke="#d5dde5" stroke-width="1"/>
<text x="116" y="309" font-family="ui-sans-serif, -apple-system, BlinkMacSystemFont, 'Segoe UI', Roboto, Helvetica, Arial, sans-serif" font-size="13.5" font-weight="700" fill="#16202b" text-anchor="start">CPU</text>
<text x="116" y="322" font-family="ui-sans-serif, -apple-system, BlinkMacSystemFont, 'Segoe UI', Roboto, Helvetica, Arial, sans-serif" font-size="9.5" font-weight="400" fill="#63737f" text-anchor="start">x86-64</text>
<text x="116" y="337" font-family="ui-monospace, SFMono-Regular, Menlo, Consolas, monospace" font-size="11" font-weight="700" fill="#0068b5" text-anchor="start">target=cpu</text>
<text x="116" y="358" font-family="ui-monospace, SFMono-Regular, Menlo, Consolas, monospace" font-size="11.5" font-weight="400" fill="#16202b" text-anchor="start">inductor</text>
<rect x="272" y="348" width="32" height="14" rx="3" fill="#dcfce7"/><text x="288.0" y="359" font-family="ui-monospace, SFMono-Regular, Menlo, Consolas, monospace" font-size="9" font-weight="700" fill="#0f7b3d" text-anchor="middle" letter-spacing="0.03em">JIT</text>
<text x="116" y="377" font-family="ui-monospace, SFMono-Regular, Menlo, Consolas, monospace" font-size="11.5" font-weight="400" fill="#16202b" text-anchor="start">aot_inductor</text>
<rect x="272" y="367" width="32" height="14" rx="3" fill="#fef3c7"/><text x="288.0" y="378" font-family="ui-monospace, SFMono-Regular, Menlo, Consolas, monospace" font-size="9" font-weight="700" fill="#8a5200" text-anchor="middle" letter-spacing="0.03em">AOT</text>
<text x="116" y="396" font-family="ui-monospace, SFMono-Regular, Menlo, Consolas, monospace" font-size="11.5" font-weight="400" fill="#16202b" text-anchor="start">openvino</text>
<rect x="272" y="386" width="32" height="14" rx="3" fill="#fef3c7"/><text x="288.0" y="397" font-family="ui-monospace, SFMono-Regular, Menlo, Consolas, monospace" font-size="9" font-weight="700" fill="#8a5200" text-anchor="middle" letter-spacing="0.03em">AOT</text>
<text x="116" y="415" font-family="ui-monospace, SFMono-Regular, Menlo, Consolas, monospace" font-size="11.5" font-weight="400" fill="#16202b" text-anchor="start">onnxruntime</text>
<rect x="272" y="405" width="32" height="14" rx="3" fill="#fef3c7"/><text x="288.0" y="416" font-family="ui-monospace, SFMono-Regular, Menlo, Consolas, monospace" font-size="9" font-weight="700" fill="#8a5200" text-anchor="middle" letter-spacing="0.03em">AOT</text>
<text x="116" y="434" font-family="ui-monospace, SFMono-Regular, Menlo, Consolas, monospace" font-size="11.5" font-weight="400" fill="#16202b" text-anchor="start">tvm</text>
<rect x="272" y="424" width="32" height="14" rx="3" fill="#dcfce7"/><text x="288.0" y="435" font-family="ui-monospace, SFMono-Regular, Menlo, Consolas, monospace" font-size="9" font-weight="700" fill="#0f7b3d" text-anchor="middle" letter-spacing="0.03em">JIT</text>
<rect x="102" y="459" width="232" height="104" rx="7" fill="#ffffff" stroke="#d5dde5" stroke-width="1"/>
<text x="116" y="480" font-family="ui-sans-serif, -apple-system, BlinkMacSystemFont, 'Segoe UI', Roboto, Helvetica, Arial, sans-serif" font-size="13.5" font-weight="700" fill="#16202b" text-anchor="start">GPU</text>
<text x="116" y="493" font-family="ui-sans-serif, -apple-system, BlinkMacSystemFont, 'Segoe UI', Roboto, Helvetica, Arial, sans-serif" font-size="9.5" font-weight="400" fill="#63737f" text-anchor="start">Arc, XPU</text>
<text x="116" y="508" font-family="ui-monospace, SFMono-Regular, Menlo, Consolas, monospace" font-size="11" font-weight="700" fill="#0068b5" text-anchor="start">target=intel</text>
<text x="116" y="529" font-family="ui-monospace, SFMono-Regular, Menlo, Consolas, monospace" font-size="11.5" font-weight="400" fill="#16202b" text-anchor="start">inductor</text>
<rect x="272" y="519" width="32" height="14" rx="3" fill="#dcfce7"/><text x="288.0" y="530" font-family="ui-monospace, SFMono-Regular, Menlo, Consolas, monospace" font-size="9" font-weight="700" fill="#0f7b3d" text-anchor="middle" letter-spacing="0.03em">JIT</text>
<text x="116" y="548" font-family="ui-monospace, SFMono-Regular, Menlo, Consolas, monospace" font-size="11.5" font-weight="400" fill="#16202b" text-anchor="start">iree_vulkan</text>
<rect x="272" y="538" width="52" height="14" rx="3" fill="#f3e8ff"/><text x="298.0" y="549" font-family="ui-monospace, SFMono-Regular, Menlo, Consolas, monospace" font-size="9" font-weight="700" fill="#7c2d92" text-anchor="middle" letter-spacing="0.03em">EXPORT</text>
<rect x="102" y="573" width="232" height="85" rx="7" fill="#ffffff" stroke="#d5dde5" stroke-width="1"/>
<text x="116" y="594" font-family="ui-sans-serif, -apple-system, BlinkMacSystemFont, 'Segoe UI', Roboto, Helvetica, Arial, sans-serif" font-size="13.5" font-weight="700" fill="#16202b" text-anchor="start">NPU</text>
<text x="116" y="607" font-family="ui-sans-serif, -apple-system, BlinkMacSystemFont, 'Segoe UI', Roboto, Helvetica, Arial, sans-serif" font-size="9.5" font-weight="400" fill="#63737f" text-anchor="start">Core Ultra AI Boost</text>
<text x="116" y="622" font-family="ui-monospace, SFMono-Regular, Menlo, Consolas, monospace" font-size="11" font-weight="700" fill="#0068b5" text-anchor="start">target=intel:npu</text>
<text x="116" y="643" font-family="ui-monospace, SFMono-Regular, Menlo, Consolas, monospace" font-size="11.5" font-weight="400" fill="#16202b" text-anchor="start">openvino</text>
<rect x="272" y="633" width="32" height="14" rx="3" fill="#fef3c7"/><text x="288.0" y="644" font-family="ui-monospace, SFMono-Regular, Menlo, Consolas, monospace" font-size="9" font-weight="700" fill="#8a5200" text-anchor="middle" letter-spacing="0.03em">AOT</text>
<path d="M 218.0 672 L 218.0 700" stroke="#8896a4" stroke-width="1.4" fill="none" marker-end="url(#arrow)"/>
<rect x="102" y="706" width="232" height="122" rx="7" fill="#ffffff" stroke="#d5dde5" stroke-width="1"/>
<text x="116" y="730" font-family="ui-monospace, SFMono-Regular, Menlo, Consolas, monospace" font-size="11.5" font-weight="400" fill="#16202b" text-anchor="start">C++ / OpenMP</text>
<text x="116" y="748" font-family="ui-monospace, SFMono-Regular, Menlo, Consolas, monospace" font-size="11.5" font-weight="400" fill="#16202b" text-anchor="start">oneDNN</text>
<text x="116" y="766" font-family="ui-monospace, SFMono-Regular, Menlo, Consolas, monospace" font-size="11.5" font-weight="400" fill="#16202b" text-anchor="start">SYCL (XPU)</text>
<text x="116" y="784" font-family="ui-monospace, SFMono-Regular, Menlo, Consolas, monospace" font-size="11.5" font-weight="400" fill="#16202b" text-anchor="start">OpenVINO IR</text>
<text x="116" y="802" font-family="ui-monospace, SFMono-Regular, Menlo, Consolas, monospace" font-size="11.5" font-weight="400" fill="#16202b" text-anchor="start">Vulkan / SPIR-V</text>
<path d="M 218.0 828 L 218.0 848" stroke="#8896a4" stroke-width="1.4" fill="none" marker-end="url(#arrow)"/>
<rect x="102" y="854" width="232" height="86" rx="7" fill="#ffffff" stroke="#d5dde5" stroke-width="1"/>
<rect x="102" y="854" width="4" height="86" rx="2" fill="#0068b5"/>
<circle cx="126" cy="878" r="9" fill="#1c2b45"/><text x="126" y="881.5" font-family="ui-monospace, SFMono-Regular, Menlo, Consolas, monospace" font-size="9.5" font-weight="700" fill="#ffffff" text-anchor="middle">1</text>
<g transform="translate(146 865) scale(1.1667)"><path d="M20.42 7.345v9.18h1.651v-9.18zM0 7.475v1.737h1.737V7.474zm9.78.352v6.053c0 .513.044.945.13 1.292.087.34.235.618.44.828.203.21.475.359.803.451.334.093.754.136 1.255.136h.216v-1.533c-.24 0-.445-.012-.593-.037a.672.672 0 0 1-.39-.173.693.693 0 0 1-.173-.377 4.002 4.002 0 0 1-.037-.606v-2.182h1.193v-1.416h-1.193V7.827zm-3.505 2.312c-.396 0-.76.08-1.082.241-.327.161-.6.384-.822.668l-.087.117v-.902H2.658v6.256h1.639v-3.214c.018-.588.16-1.02.433-1.299.29-.297.642-.445 1.044-.445.476 0 .841.149 1.082.433.235.284.359.686.359 1.2v3.324h1.663V12.97c.006-.89-.229-1.595-.686-2.09-.458-.495-1.1-.742-1.917-.742zm10.065.006a3.252 3.252 0 0 0-2.306.946c-.29.29-.525.637-.692 1.033a3.145 3.145 0 0 0-.254 1.273c0 .452.08.878.241 1.274.161.395.39.742.674 1.032.284.29.637.526 1.045.693.408.173.86.26 1.342.26 1.397 0 2.262-.637 2.782-1.23l-1.187-.904c-.248.297-.841.699-1.583.699-.464 0-.847-.105-1.138-.321a1.588 1.588 0 0 1-.593-.872l-.019-.056h4.915v-.587c0-.451-.08-.872-.235-1.267a3.393 3.393 0 0 0-.661-1.033 3.013 3.013 0 0 0-1.02-.692 3.345 3.345 0 0 0-1.311-.248zm-16.297.118v6.256h1.651v-6.256zm16.278 1.286c1.132 0 1.664.797 1.664 1.255l-3.32.006c0-.458.525-1.255 1.656-1.261zm7.073 3.814a.606.606 0 0 0-.606.606.606.606 0 0 0 .606.606.606.606 0 0 0 .606-.606.606.606 0 0 0-.606-.606zm-.008.105a.5.5 0 0 1 .002 0 .5.5 0 0 1 .5.501.5.5 0 0 1-.5.5.5.5 0 0 1-.5-.5.5.5 0 0 1 .498-.5zm-.233.155v.699h.13v-.285h.093l.173.285h.136l-.18-.297a.191.191 0 0 0 .118-.056c.03-.03.05-.074.05-.136 0-.068-.02-.117-.063-.154-.037-.038-.105-.056-.185-.056zm.13.099h.154c.019 0 .037.006.056.012a.064.064 0 0 1 .037.031c.013.013.012.031.012.056a.124.124 0 0 1-.012.055.164.164 0 0 1-.037.031c-.019.006-.037.013-.056.013h-.154Z" fill="#0071C5"/></g>
<text x="182" y="886" font-family="ui-sans-serif, -apple-system, BlinkMacSystemFont, 'Segoe UI', Roboto, Helvetica, Arial, sans-serif" font-size="16" font-weight="700" fill="#16202b" text-anchor="start">Intel</text>
<text x="120" y="911" font-family="ui-sans-serif, -apple-system, BlinkMacSystemFont, 'Segoe UI', Roboto, Helvetica, Arial, sans-serif" font-size="11" font-weight="400" fill="#63737f" text-anchor="start">CPU, GPU, NPU</text>
<path d="M 464.0 218 L 464.0 240" stroke="#8896a4" stroke-width="1.4" fill="none" marker-end="url(#arrow)"/>
<g transform="translate(350 257) scale(0.7500)"><path d="M18.324 9.137l1.559 1.56h2.556v2.557L24 14.814V9.137zM2 9.52l-2 4.96h1.309l.37-.982H3.9l.408.982h1.338L3.432 9.52zm4.209 0v4.955h1.238v-3.092l1.338 1.562h.188l1.338-1.556v3.091h1.238V9.52H10.47l-1.592 1.845L7.287 9.52zm6.283 0v4.96h2.057c1.979 0 2.88-1.046 2.88-2.472 0-1.36-.937-2.488-2.747-2.488zm1.237.91h.792c1.17 0 1.63.711 1.63 1.57 0 .728-.372 1.572-1.616 1.572h-.806zm-10.985.273l.791 1.932H2.008zm17.137.307l-1.604 1.603v2.25h2.246l1.604-1.607h-2.246z" fill="#ED1C24"/></g>
<text x="374" y="271" font-family="ui-sans-serif, -apple-system, BlinkMacSystemFont, 'Segoe UI', Roboto, Helvetica, Arial, sans-serif" font-size="14" font-weight="800" fill="#c8102e" text-anchor="start">AMD</text>
<rect x="348" y="278" width="232" height="2" rx="0" fill="#c8102e"/>
<rect x="348" y="288" width="232" height="161" rx="7" fill="#ffffff" stroke="#d5dde5" stroke-width="1"/>
<text x="362" y="309" font-family="ui-sans-serif, -apple-system, BlinkMacSystemFont, 'Segoe UI', Roboto, Helvetica, Arial, sans-serif" font-size="13.5" font-weight="700" fill="#16202b" text-anchor="start">CPU</text>
<text x="362" y="322" font-family="ui-sans-serif, -apple-system, BlinkMacSystemFont, 'Segoe UI', Roboto, Helvetica, Arial, sans-serif" font-size="9.5" font-weight="400" fill="#63737f" text-anchor="start">x86-64, EPYC / Ryzen</text>
<text x="362" y="337" font-family="ui-monospace, SFMono-Regular, Menlo, Consolas, monospace" font-size="11" font-weight="700" fill="#c8102e" text-anchor="start">target=cpu</text>
<text x="362" y="358" font-family="ui-monospace, SFMono-Regular, Menlo, Consolas, monospace" font-size="11.5" font-weight="400" fill="#16202b" text-anchor="start">inductor</text>
<rect x="518" y="348" width="32" height="14" rx="3" fill="#dcfce7"/><text x="534.0" y="359" font-family="ui-monospace, SFMono-Regular, Menlo, Consolas, monospace" font-size="9" font-weight="700" fill="#0f7b3d" text-anchor="middle" letter-spacing="0.03em">JIT</text>
<text x="362" y="377" font-family="ui-monospace, SFMono-Regular, Menlo, Consolas, monospace" font-size="11.5" font-weight="400" fill="#16202b" text-anchor="start">aot_inductor</text>
<rect x="518" y="367" width="32" height="14" rx="3" fill="#fef3c7"/><text x="534.0" y="378" font-family="ui-monospace, SFMono-Regular, Menlo, Consolas, monospace" font-size="9" font-weight="700" fill="#8a5200" text-anchor="middle" letter-spacing="0.03em">AOT</text>
<text x="362" y="396" font-family="ui-monospace, SFMono-Regular, Menlo, Consolas, monospace" font-size="11.5" font-weight="400" fill="#16202b" text-anchor="start">zentorch</text>
<rect x="518" y="386" width="32" height="14" rx="3" fill="#dcfce7"/><text x="534.0" y="397" font-family="ui-monospace, SFMono-Regular, Menlo, Consolas, monospace" font-size="9" font-weight="700" fill="#0f7b3d" text-anchor="middle" letter-spacing="0.03em">JIT</text>
<text x="362" y="415" font-family="ui-monospace, SFMono-Regular, Menlo, Consolas, monospace" font-size="11.5" font-weight="400" fill="#16202b" text-anchor="start">onnxruntime</text>
<rect x="518" y="405" width="32" height="14" rx="3" fill="#fef3c7"/><text x="534.0" y="416" font-family="ui-monospace, SFMono-Regular, Menlo, Consolas, monospace" font-size="9" font-weight="700" fill="#8a5200" text-anchor="middle" letter-spacing="0.03em">AOT</text>
<text x="362" y="434" font-family="ui-monospace, SFMono-Regular, Menlo, Consolas, monospace" font-size="11.5" font-weight="400" fill="#16202b" text-anchor="start">tvm</text>
<rect x="518" y="424" width="32" height="14" rx="3" fill="#dcfce7"/><text x="534.0" y="435" font-family="ui-monospace, SFMono-Regular, Menlo, Consolas, monospace" font-size="9" font-weight="700" fill="#0f7b3d" text-anchor="middle" letter-spacing="0.03em">JIT</text>
<rect x="348" y="459" width="232" height="104" rx="7" fill="#ffffff" stroke="#d5dde5" stroke-width="1"/>
<text x="362" y="480" font-family="ui-sans-serif, -apple-system, BlinkMacSystemFont, 'Segoe UI', Roboto, Helvetica, Arial, sans-serif" font-size="13.5" font-weight="700" fill="#16202b" text-anchor="start">GPU</text>
<text x="362" y="493" font-family="ui-sans-serif, -apple-system, BlinkMacSystemFont, 'Segoe UI', Roboto, Helvetica, Arial, sans-serif" font-size="9.5" font-weight="400" fill="#63737f" text-anchor="start">ROCm</text>
<text x="362" y="508" font-family="ui-monospace, SFMono-Regular, Menlo, Consolas, monospace" font-size="11" font-weight="700" fill="#c8102e" text-anchor="start">target=amd</text>
<text x="362" y="529" font-family="ui-monospace, SFMono-Regular, Menlo, Consolas, monospace" font-size="11.5" font-weight="400" fill="#16202b" text-anchor="start">inductor</text>
<rect x="518" y="519" width="32" height="14" rx="3" fill="#dcfce7"/><text x="534.0" y="530" font-family="ui-monospace, SFMono-Regular, Menlo, Consolas, monospace" font-size="9" font-weight="700" fill="#0f7b3d" text-anchor="middle" letter-spacing="0.03em">JIT</text>
<text x="362" y="548" font-family="ui-monospace, SFMono-Regular, Menlo, Consolas, monospace" font-size="11.5" font-weight="400" fill="#16202b" text-anchor="start">iree_vulkan</text>
<rect x="518" y="538" width="52" height="14" rx="3" fill="#f3e8ff"/><text x="544.0" y="549" font-family="ui-monospace, SFMono-Regular, Menlo, Consolas, monospace" font-size="9" font-weight="700" fill="#7c2d92" text-anchor="middle" letter-spacing="0.03em">EXPORT</text>
<path d="M 464.0 672 L 464.0 700" stroke="#8896a4" stroke-width="1.4" fill="none" marker-end="url(#arrow)"/>
<rect x="348" y="706" width="232" height="122" rx="7" fill="#ffffff" stroke="#d5dde5" stroke-width="1"/>
<text x="362" y="730" font-family="ui-monospace, SFMono-Regular, Menlo, Consolas, monospace" font-size="11.5" font-weight="400" fill="#16202b" text-anchor="start">C++ / OpenMP</text>
<text x="362" y="748" font-family="ui-monospace, SFMono-Regular, Menlo, Consolas, monospace" font-size="11.5" font-weight="400" fill="#16202b" text-anchor="start">ZenDNN</text>
<text x="362" y="766" font-family="ui-monospace, SFMono-Regular, Menlo, Consolas, monospace" font-size="11.5" font-weight="400" fill="#16202b" text-anchor="start">Triton / ROCm, HIP</text>
<text x="362" y="784" font-family="ui-monospace, SFMono-Regular, Menlo, Consolas, monospace" font-size="11.5" font-weight="400" fill="#16202b" text-anchor="start">Vulkan / SPIR-V</text>
<path d="M 464.0 828 L 464.0 848" stroke="#8896a4" stroke-width="1.4" fill="none" marker-end="url(#arrow)"/>
<rect x="348" y="854" width="232" height="86" rx="7" fill="#ffffff" stroke="#d5dde5" stroke-width="1"/>
<rect x="348" y="854" width="4" height="86" rx="2" fill="#c8102e"/>
<circle cx="372" cy="878" r="9" fill="#1c2b45"/><text x="372" y="881.5" font-family="ui-monospace, SFMono-Regular, Menlo, Consolas, monospace" font-size="9.5" font-weight="700" fill="#ffffff" text-anchor="middle">2</text>
<g transform="translate(392 865) scale(1.1667)"><path d="M18.324 9.137l1.559 1.56h2.556v2.557L24 14.814V9.137zM2 9.52l-2 4.96h1.309l.37-.982H3.9l.408.982h1.338L3.432 9.52zm4.209 0v4.955h1.238v-3.092l1.338 1.562h.188l1.338-1.556v3.091h1.238V9.52H10.47l-1.592 1.845L7.287 9.52zm6.283 0v4.96h2.057c1.979 0 2.88-1.046 2.88-2.472 0-1.36-.937-2.488-2.747-2.488zm1.237.91h.792c1.17 0 1.63.711 1.63 1.57 0 .728-.372 1.572-1.616 1.572h-.806zm-10.985.273l.791 1.932H2.008zm17.137.307l-1.604 1.603v2.25h2.246l1.604-1.607h-2.246z" fill="#ED1C24"/></g>
<text x="428" y="886" font-family="ui-sans-serif, -apple-system, BlinkMacSystemFont, 'Segoe UI', Roboto, Helvetica, Arial, sans-serif" font-size="16" font-weight="700" fill="#16202b" text-anchor="start">AMD</text>
<text x="366" y="911" font-family="ui-sans-serif, -apple-system, BlinkMacSystemFont, 'Segoe UI', Roboto, Helvetica, Arial, sans-serif" font-size="11" font-weight="400" fill="#63737f" text-anchor="start">CPU, GPU</text>
<path d="M 710.0 218 L 710.0 240" stroke="#8896a4" stroke-width="1.4" fill="none" marker-end="url(#arrow)"/>
<g transform="translate(596 257) scale(0.7500)"><path d="M8.948 8.798v-1.43a6.7 6.7 0 0 1 .424-.018c3.922-.124 6.493 3.374 6.493 3.374s-2.774 3.851-5.75 3.851c-.398 0-.787-.062-1.158-.185v-4.346c1.528.185 1.837.857 2.747 2.385l2.04-1.714s-1.492-1.952-4-1.952a6.016 6.016 0 0 0-.796.035m0-4.735v2.138l.424-.027c5.45-.185 9.01 4.47 9.01 4.47s-4.08 4.964-8.33 4.964c-.37 0-.733-.035-1.095-.097v1.325c.3.035.61.062.91.062 3.957 0 6.82-2.023 9.593-4.408.459.371 2.34 1.263 2.73 1.652-2.633 2.208-8.772 3.984-12.253 3.984-.335 0-.653-.018-.971-.053v1.864H24V4.063zm0 10.326v1.131c-3.657-.654-4.673-4.46-4.673-4.46s1.758-1.944 4.673-2.262v1.237H8.94c-1.528-.186-2.73 1.245-2.73 1.245s.68 2.412 2.739 3.11M2.456 10.9s2.164-3.197 6.5-3.533V6.201C4.153 6.59 0 10.653 0 10.653s2.35 6.802 8.948 7.42v-1.237c-4.84-.6-6.492-5.936-6.492-5.936z" fill="#76B900"/></g>
<text x="620" y="271" font-family="ui-sans-serif, -apple-system, BlinkMacSystemFont, 'Segoe UI', Roboto, Helvetica, Arial, sans-serif" font-size="14" font-weight="800" fill="#76b900" text-anchor="start">NVIDIA</text>
<rect x="594" y="278" width="232" height="2" rx="0" fill="#76b900"/>
<rect x="594" y="288" width="232" height="161" rx="7" fill="#ffffff" stroke="#d5dde5" stroke-width="1"/>
<text x="608" y="309" font-family="ui-sans-serif, -apple-system, BlinkMacSystemFont, 'Segoe UI', Roboto, Helvetica, Arial, sans-serif" font-size="13.5" font-weight="700" fill="#16202b" text-anchor="start">GPU</text>
<text x="608" y="322" font-family="ui-sans-serif, -apple-system, BlinkMacSystemFont, 'Segoe UI', Roboto, Helvetica, Arial, sans-serif" font-size="9.5" font-weight="400" fill="#63737f" text-anchor="start">Ampere and newer</text>
<text x="608" y="337" font-family="ui-monospace, SFMono-Regular, Menlo, Consolas, monospace" font-size="11" font-weight="700" fill="#76b900" text-anchor="start">target=nvidia</text>
<text x="608" y="358" font-family="ui-monospace, SFMono-Regular, Menlo, Consolas, monospace" font-size="11.5" font-weight="400" fill="#16202b" text-anchor="start">inductor</text>
<rect x="764" y="348" width="32" height="14" rx="3" fill="#dcfce7"/><text x="780.0" y="359" font-family="ui-monospace, SFMono-Regular, Menlo, Consolas, monospace" font-size="9" font-weight="700" fill="#0f7b3d" text-anchor="middle" letter-spacing="0.03em">JIT</text>
<text x="608" y="377" font-family="ui-monospace, SFMono-Regular, Menlo, Consolas, monospace" font-size="11.5" font-weight="400" fill="#16202b" text-anchor="start">aot_inductor</text>
<rect x="764" y="367" width="32" height="14" rx="3" fill="#fef3c7"/><text x="780.0" y="378" font-family="ui-monospace, SFMono-Regular, Menlo, Consolas, monospace" font-size="9" font-weight="700" fill="#8a5200" text-anchor="middle" letter-spacing="0.03em">AOT</text>
<text x="608" y="396" font-family="ui-monospace, SFMono-Regular, Menlo, Consolas, monospace" font-size="11.5" font-weight="400" fill="#16202b" text-anchor="start">tensorrt</text>
<rect x="764" y="386" width="32" height="14" rx="3" fill="#fef3c7"/><text x="780.0" y="397" font-family="ui-monospace, SFMono-Regular, Menlo, Consolas, monospace" font-size="9" font-weight="700" fill="#8a5200" text-anchor="middle" letter-spacing="0.03em">AOT</text>
<text x="608" y="415" font-family="ui-monospace, SFMono-Regular, Menlo, Consolas, monospace" font-size="11.5" font-weight="400" fill="#16202b" text-anchor="start">onnxruntime</text>
<rect x="764" y="405" width="32" height="14" rx="3" fill="#fef3c7"/><text x="780.0" y="416" font-family="ui-monospace, SFMono-Regular, Menlo, Consolas, monospace" font-size="9" font-weight="700" fill="#8a5200" text-anchor="middle" letter-spacing="0.03em">AOT</text>
<text x="608" y="434" font-family="ui-monospace, SFMono-Regular, Menlo, Consolas, monospace" font-size="11.5" font-weight="400" fill="#16202b" text-anchor="start">iree_vulkan</text>
<rect x="764" y="424" width="52" height="14" rx="3" fill="#f3e8ff"/><text x="790.0" y="435" font-family="ui-monospace, SFMono-Regular, Menlo, Consolas, monospace" font-size="9" font-weight="700" fill="#7c2d92" text-anchor="middle" letter-spacing="0.03em">EXPORT</text>
<path d="M 710.0 672 L 710.0 700" stroke="#8896a4" stroke-width="1.4" fill="none" marker-end="url(#arrow)"/>
<rect x="594" y="706" width="232" height="122" rx="7" fill="#ffffff" stroke="#d5dde5" stroke-width="1"/>
<text x="608" y="730" font-family="ui-monospace, SFMono-Regular, Menlo, Consolas, monospace" font-size="11.5" font-weight="400" fill="#16202b" text-anchor="start">Triton / CUDA</text>
<text x="608" y="748" font-family="ui-monospace, SFMono-Regular, Menlo, Consolas, monospace" font-size="11.5" font-weight="400" fill="#16202b" text-anchor="start">cuBLAS, cuDNN</text>
<text x="608" y="766" font-family="ui-monospace, SFMono-Regular, Menlo, Consolas, monospace" font-size="11.5" font-weight="400" fill="#16202b" text-anchor="start">TensorRT engine</text>
<text x="608" y="784" font-family="ui-monospace, SFMono-Regular, Menlo, Consolas, monospace" font-size="11.5" font-weight="400" fill="#16202b" text-anchor="start">Vulkan / SPIR-V</text>
<path d="M 710.0 828 L 710.0 848" stroke="#8896a4" stroke-width="1.4" fill="none" marker-end="url(#arrow)"/>
<rect x="594" y="854" width="232" height="86" rx="7" fill="#ffffff" stroke="#d5dde5" stroke-width="1"/>
<rect x="594" y="854" width="4" height="86" rx="2" fill="#76b900"/>
<circle cx="618" cy="878" r="9" fill="#1c2b45"/><text x="618" y="881.5" font-family="ui-monospace, SFMono-Regular, Menlo, Consolas, monospace" font-size="9.5" font-weight="700" fill="#ffffff" text-anchor="middle">3</text>
<g transform="translate(638 865) scale(1.1667)"><path d="M8.948 8.798v-1.43a6.7 6.7 0 0 1 .424-.018c3.922-.124 6.493 3.374 6.493 3.374s-2.774 3.851-5.75 3.851c-.398 0-.787-.062-1.158-.185v-4.346c1.528.185 1.837.857 2.747 2.385l2.04-1.714s-1.492-1.952-4-1.952a6.016 6.016 0 0 0-.796.035m0-4.735v2.138l.424-.027c5.45-.185 9.01 4.47 9.01 4.47s-4.08 4.964-8.33 4.964c-.37 0-.733-.035-1.095-.097v1.325c.3.035.61.062.91.062 3.957 0 6.82-2.023 9.593-4.408.459.371 2.34 1.263 2.73 1.652-2.633 2.208-8.772 3.984-12.253 3.984-.335 0-.653-.018-.971-.053v1.864H24V4.063zm0 10.326v1.131c-3.657-.654-4.673-4.46-4.673-4.46s1.758-1.944 4.673-2.262v1.237H8.94c-1.528-.186-2.73 1.245-2.73 1.245s.68 2.412 2.739 3.11M2.456 10.9s2.164-3.197 6.5-3.533V6.201C4.153 6.59 0 10.653 0 10.653s2.35 6.802 8.948 7.42v-1.237c-4.84-.6-6.492-5.936-6.492-5.936z" fill="#76B900"/></g>
<text x="674" y="886" font-family="ui-sans-serif, -apple-system, BlinkMacSystemFont, 'Segoe UI', Roboto, Helvetica, Arial, sans-serif" font-size="16" font-weight="700" fill="#16202b" text-anchor="start">NVIDIA</text>
<text x="612" y="911" font-family="ui-sans-serif, -apple-system, BlinkMacSystemFont, 'Segoe UI', Roboto, Helvetica, Arial, sans-serif" font-size="11" font-weight="400" fill="#63737f" text-anchor="start">GPU</text>
<path d="M 956.0 218 L 956.0 240" stroke="#8896a4" stroke-width="1.4" fill="none" marker-end="url(#arrow)"/>
<g transform="translate(842 257) scale(0.7500)"><path d="M12.152 6.896c-.948 0-2.415-1.078-3.96-1.04-2.04.027-3.91 1.183-4.961 3.014-2.117 3.675-.546 9.103 1.519 12.09 1.013 1.454 2.208 3.09 3.792 3.039 1.52-.065 2.09-.987 3.935-.987 1.831 0 2.35.987 3.96.948 1.637-.026 2.676-1.48 3.676-2.948 1.156-1.688 1.636-3.325 1.662-3.415-.039-.013-3.182-1.221-3.22-4.857-.026-3.04 2.48-4.494 2.597-4.559-1.429-2.09-3.623-2.324-4.39-2.376-2-.156-3.675 1.09-4.61 1.09zM15.53 3.83c.843-1.012 1.4-2.427 1.245-3.83-1.207.052-2.662.805-3.532 1.818-.78.896-1.454 2.338-1.273 3.714 1.338.104 2.715-.688 3.559-1.701" fill="#000000"/></g>
<text x="866" y="271" font-family="ui-sans-serif, -apple-system, BlinkMacSystemFont, 'Segoe UI', Roboto, Helvetica, Arial, sans-serif" font-size="14" font-weight="800" fill="#6e6e73" text-anchor="start">Apple</text>
<rect x="840" y="278" width="232" height="2" rx="0" fill="#6e6e73"/>
<rect x="840" y="288" width="232" height="142" rx="7" fill="#ffffff" stroke="#d5dde5" stroke-width="1"/>
<text x="854" y="309" font-family="ui-sans-serif, -apple-system, BlinkMacSystemFont, 'Segoe UI', Roboto, Helvetica, Arial, sans-serif" font-size="13.5" font-weight="700" fill="#16202b" text-anchor="start">CPU</text>
<text x="854" y="322" font-family="ui-sans-serif, -apple-system, BlinkMacSystemFont, 'Segoe UI', Roboto, Helvetica, Arial, sans-serif" font-size="9.5" font-weight="400" fill="#63737f" text-anchor="start">Apple silicon, ARM64</text>
<text x="854" y="337" font-family="ui-monospace, SFMono-Regular, Menlo, Consolas, monospace" font-size="11" font-weight="700" fill="#6e6e73" text-anchor="start">target=cpu</text>
<text x="854" y="358" font-family="ui-monospace, SFMono-Regular, Menlo, Consolas, monospace" font-size="11.5" font-weight="400" fill="#16202b" text-anchor="start">inductor</text>
<rect x="1010" y="348" width="32" height="14" rx="3" fill="#dcfce7"/><text x="1026.0" y="359" font-family="ui-monospace, SFMono-Regular, Menlo, Consolas, monospace" font-size="9" font-weight="700" fill="#0f7b3d" text-anchor="middle" letter-spacing="0.03em">JIT</text>
<text x="854" y="377" font-family="ui-monospace, SFMono-Regular, Menlo, Consolas, monospace" font-size="11.5" font-weight="400" fill="#16202b" text-anchor="start">aot_inductor</text>
<rect x="1010" y="367" width="32" height="14" rx="3" fill="#fef3c7"/><text x="1026.0" y="378" font-family="ui-monospace, SFMono-Regular, Menlo, Consolas, monospace" font-size="9" font-weight="700" fill="#8a5200" text-anchor="middle" letter-spacing="0.03em">AOT</text>
<text x="854" y="396" font-family="ui-monospace, SFMono-Regular, Menlo, Consolas, monospace" font-size="11.5" font-weight="400" fill="#16202b" text-anchor="start">onnxruntime</text>
<rect x="1010" y="386" width="32" height="14" rx="3" fill="#fef3c7"/><text x="1026.0" y="397" font-family="ui-monospace, SFMono-Regular, Menlo, Consolas, monospace" font-size="9" font-weight="700" fill="#8a5200" text-anchor="middle" letter-spacing="0.03em">AOT</text>
<text x="854" y="415" font-family="ui-monospace, SFMono-Regular, Menlo, Consolas, monospace" font-size="11.5" font-weight="400" fill="#16202b" text-anchor="start">tvm</text>
<rect x="1010" y="405" width="32" height="14" rx="3" fill="#dcfce7"/><text x="1026.0" y="416" font-family="ui-monospace, SFMono-Regular, Menlo, Consolas, monospace" font-size="9" font-weight="700" fill="#0f7b3d" text-anchor="middle" letter-spacing="0.03em">JIT</text>
<rect x="840" y="440" width="232" height="104" rx="7" fill="#ffffff" stroke="#d5dde5" stroke-width="1"/>
<text x="854" y="461" font-family="ui-sans-serif, -apple-system, BlinkMacSystemFont, 'Segoe UI', Roboto, Helvetica, Arial, sans-serif" font-size="13.5" font-weight="700" fill="#16202b" text-anchor="start">GPU</text>
<text x="854" y="474" font-family="ui-sans-serif, -apple-system, BlinkMacSystemFont, 'Segoe UI', Roboto, Helvetica, Arial, sans-serif" font-size="9.5" font-weight="400" fill="#63737f" text-anchor="start">Metal</text>
<text x="854" y="489" font-family="ui-monospace, SFMono-Regular, Menlo, Consolas, monospace" font-size="11" font-weight="700" fill="#6e6e73" text-anchor="start">target=apple</text>
<text x="854" y="510" font-family="ui-monospace, SFMono-Regular, Menlo, Consolas, monospace" font-size="11.5" font-weight="400" fill="#16202b" text-anchor="start">inductor</text>
<rect x="1010" y="500" width="32" height="14" rx="3" fill="#dcfce7"/><text x="1026.0" y="511" font-family="ui-monospace, SFMono-Regular, Menlo, Consolas, monospace" font-size="9" font-weight="700" fill="#0f7b3d" text-anchor="middle" letter-spacing="0.03em">JIT</text>
<text x="854" y="529" font-family="ui-monospace, SFMono-Regular, Menlo, Consolas, monospace" font-size="11.5" font-weight="400" fill="#16202b" text-anchor="start">aot_inductor</text>
<rect x="1010" y="519" width="32" height="14" rx="3" fill="#fef3c7"/><text x="1026.0" y="530" font-family="ui-monospace, SFMono-Regular, Menlo, Consolas, monospace" font-size="9" font-weight="700" fill="#8a5200" text-anchor="middle" letter-spacing="0.03em">AOT</text>
<path d="M 956.0 672 L 956.0 700" stroke="#8896a4" stroke-width="1.4" fill="none" marker-end="url(#arrow)"/>
<rect x="840" y="706" width="232" height="122" rx="7" fill="#ffffff" stroke="#d5dde5" stroke-width="1"/>
<text x="854" y="730" font-family="ui-monospace, SFMono-Regular, Menlo, Consolas, monospace" font-size="11.5" font-weight="400" fill="#16202b" text-anchor="start">C++ / OpenMP</text>
<text x="854" y="748" font-family="ui-monospace, SFMono-Regular, Menlo, Consolas, monospace" font-size="11.5" font-weight="400" fill="#16202b" text-anchor="start">Metal / MPS</text>
<path d="M 956.0 828 L 956.0 848" stroke="#8896a4" stroke-width="1.4" fill="none" marker-end="url(#arrow)"/>
<rect x="840" y="854" width="232" height="86" rx="7" fill="#ffffff" stroke="#d5dde5" stroke-width="1"/>
<rect x="840" y="854" width="4" height="86" rx="2" fill="#6e6e73"/>
<circle cx="864" cy="878" r="9" fill="#1c2b45"/><text x="864" y="881.5" font-family="ui-monospace, SFMono-Regular, Menlo, Consolas, monospace" font-size="9.5" font-weight="700" fill="#ffffff" text-anchor="middle">4</text>
<g transform="translate(884 865) scale(1.1667)"><path d="M12.152 6.896c-.948 0-2.415-1.078-3.96-1.04-2.04.027-3.91 1.183-4.961 3.014-2.117 3.675-.546 9.103 1.519 12.09 1.013 1.454 2.208 3.09 3.792 3.039 1.52-.065 2.09-.987 3.935-.987 1.831 0 2.35.987 3.96.948 1.637-.026 2.676-1.48 3.676-2.948 1.156-1.688 1.636-3.325 1.662-3.415-.039-.013-3.182-1.221-3.22-4.857-.026-3.04 2.48-4.494 2.597-4.559-1.429-2.09-3.623-2.324-4.39-2.376-2-.156-3.675 1.09-4.61 1.09zM15.53 3.83c.843-1.012 1.4-2.427 1.245-3.83-1.207.052-2.662.805-3.532 1.818-.78.896-1.454 2.338-1.273 3.714 1.338.104 2.715-.688 3.559-1.701" fill="#000000"/></g>
<text x="920" y="886" font-family="ui-sans-serif, -apple-system, BlinkMacSystemFont, 'Segoe UI', Roboto, Helvetica, Arial, sans-serif" font-size="16" font-weight="700" fill="#16202b" text-anchor="start">Apple</text>
<text x="858" y="911" font-family="ui-sans-serif, -apple-system, BlinkMacSystemFont, 'Segoe UI', Roboto, Helvetica, Arial, sans-serif" font-size="11" font-weight="400" fill="#63737f" text-anchor="start">CPU, GPU</text>
<text x="587.0" y="972" font-family="ui-sans-serif, -apple-system, BlinkMacSystemFont, 'Segoe UI', Roboto, Helvetica, Arial, sans-serif" font-size="8.5" font-weight="400" fill="#63737f" text-anchor="middle">JIT compiles in-process  ·  AOT also writes a reloadable .lm7  ·  EXPORT cannot run in-process</text>
<text x="587.0" y="984" font-family="ui-sans-serif, -apple-system, BlinkMacSystemFont, 'Segoe UI', Roboto, Helvetica, Arial, sans-serif" font-size="8.5" font-weight="400" fill="#63737f" text-anchor="middle">eager is the fallback everywhere and is omitted here; backend priority and artifact formats are in the table below</text>
</svg>